<svg width="130" height="18" viewBox="0 0 130 18" fill="none" xmlns="http://www.w3.org/2000/svg">
    <path d="M3.36 0.660044V17.412H0V0.660044H3.36Z" fill="#0E2E3B"/>
    <path d="M18.8957 5.84404C18.8957 6.74004 18.6797 7.58004 18.2477 8.36404C17.8317 9.14804 17.1677 9.78004 16.2557 10.26C15.3597 10.74 14.2237 10.98 12.8477 10.98H10.0397V17.412H6.67969V0.660044H12.8477C14.1437 0.660044 15.2477 0.884044 16.1597 1.33204C17.0717 1.78004 17.7517 2.39604 18.1997 3.18004C18.6637 3.96404 18.8957 4.85204 18.8957 5.84404ZM12.7037 8.26804C13.6317 8.26804 14.3197 8.06004 14.7677 7.64404C15.2157 7.21204 15.4397 6.61204 15.4397 5.84404C15.4397 4.21204 14.5277 3.39604 12.7037 3.39604H10.0397V8.26804H12.7037Z" fill="#0E2E3B"/>
    <path d="M31.5053 7.42804V10.26H21.3293V7.42804H31.5053Z" fill="#0E2E3B"/>
    <path d="M47.4894 5.84404C47.4894 6.74004 47.2734 7.58004 46.8414 8.36404C46.4254 9.14804 45.7614 9.78004 44.8494 10.26C43.9534 10.74 42.8174 10.98 41.4414 10.98H38.6334V17.412H35.2734V0.660044H41.4414C42.7374 0.660044 43.8414 0.884044 44.7534 1.33204C45.6654 1.78004 46.3454 2.39604 46.7934 3.18004C47.2574 3.96404 47.4894 4.85204 47.4894 5.84404ZM41.2974 8.26804C42.2254 8.26804 42.9134 8.06004 43.3614 7.64404C43.8094 7.21204 44.0334 6.61204 44.0334 5.84404C44.0334 4.21204 43.1214 3.39604 41.2974 3.39604H38.6334V8.26804H41.2974Z" fill="#0E2E3B"/>
    <path d="M64.203 17.412H60.843L53.235 5.91604V17.412H49.875V0.636043H53.235L60.843 12.156V0.636043H64.203V17.412Z" fill="#0E2E3B"/>
    <path d="M69.0114 17.58C68.4034 17.58 67.8994 17.396 67.4994 17.028C67.1154 16.644 66.9234 16.172 66.9234 15.612C66.9234 15.052 67.1154 14.588 67.4994 14.22C67.8994 13.836 68.4034 13.644 69.0114 13.644C69.6034 13.644 70.0914 13.836 70.4754 14.22C70.8594 14.588 71.0514 15.052 71.0514 15.612C71.0514 16.172 70.8594 16.644 70.4754 17.028C70.0914 17.396 69.6034 17.58 69.0114 17.58Z" fill="#0E2E3B"/>
    <path d="M72.9418 9.01204C72.9418 7.36404 73.3098 5.89204 74.0458 4.59604C74.7978 3.28404 75.8138 2.26804 77.0938 1.54804C78.3898 0.812044 79.8378 0.444044 81.4378 0.444044C83.3098 0.444044 84.9498 0.924044 86.3578 1.88404C87.7658 2.84404 88.7498 4.17204 89.3098 5.86804H85.4458C85.0618 5.06804 84.5178 4.46804 83.8138 4.06804C83.1258 3.66804 82.3258 3.46804 81.4138 3.46804C80.4378 3.46804 79.5658 3.70004 78.7978 4.16404C78.0458 4.61204 77.4538 5.25204 77.0218 6.08404C76.6058 6.91604 76.3978 7.89204 76.3978 9.01204C76.3978 10.116 76.6058 11.092 77.0218 11.94C77.4538 12.772 78.0458 13.42 78.7978 13.884C79.5658 14.332 80.4378 14.556 81.4138 14.556C82.3258 14.556 83.1258 14.356 83.8138 13.956C84.5178 13.54 85.0618 12.932 85.4458 12.132H89.3098C88.7498 13.844 87.7658 15.18 86.3578 16.14C84.9658 17.084 83.3258 17.556 81.4378 17.556C79.8378 17.556 78.3898 17.196 77.0938 16.476C75.8138 15.74 74.7978 14.724 74.0458 13.428C73.3098 12.132 72.9418 10.66 72.9418 9.01204Z" fill="#0E2E3B"/>
    <path d="M99.9557 17.58C98.3877 17.58 96.9477 17.212 95.6357 16.476C94.3237 15.74 93.2837 14.724 92.5157 13.428C91.7477 12.116 91.3637 10.636 91.3637 8.98804C91.3637 7.35604 91.7477 5.89204 92.5157 4.59604C93.2837 3.28404 94.3237 2.26004 95.6357 1.52404C96.9477 0.788043 98.3877 0.420044 99.9557 0.420044C101.54 0.420044 102.98 0.788043 104.276 1.52404C105.588 2.26004 106.62 3.28404 107.372 4.59604C108.14 5.89204 108.524 7.35604 108.524 8.98804C108.524 10.636 108.14 12.116 107.372 13.428C106.62 14.724 105.588 15.74 104.276 16.476C102.964 17.212 101.524 17.58 99.9557 17.58ZM99.9557 14.58C100.964 14.58 101.852 14.356 102.62 13.908C103.388 13.444 103.988 12.788 104.42 11.94C104.852 11.092 105.068 10.108 105.068 8.98804C105.068 7.86804 104.852 6.89204 104.42 6.06004C103.988 5.21204 103.388 4.56404 102.62 4.11604C101.852 3.66804 100.964 3.44404 99.9557 3.44404C98.9477 3.44404 98.0517 3.66804 97.2677 4.11604C96.4997 4.56404 95.8997 5.21204 95.4677 6.06004C95.0357 6.89204 94.8197 7.86804 94.8197 8.98804C94.8197 10.108 95.0357 11.092 95.4677 11.94C95.8997 12.788 96.4997 13.444 97.2677 13.908C98.0517 14.356 98.9477 14.58 99.9557 14.58Z" fill="#0E2E3B"/>
    <path d="M129.287 0.660044V17.412H125.927V6.51604L121.439 17.412H118.895L114.383 6.51604V17.412H111.023V0.660044H114.839L120.167 13.116L125.495 0.660044H129.287Z" fill="#0E2E3B"/>
</svg>
