<svg width="64" height="64" viewBox="0 0 64 64" fill="none" xmlns="http://www.w3.org/2000/svg">
<g clip-path="url(#clip0_9_2)">
<rect width="64" height="64" rx="32" fill="#2C2C2C"/>
<path d="M32 63C49.1 63 63 49.1 63 32C63 14.9 49.1 1 32 1C14.9 1 1 14.9 1 32C1 49.1 14.9 63 32 63ZM8 44.35L20.6 44.25C22 49.3 24.35 54.2 27.55 58.6C19 57.2 11.85 51.75 8 44.35ZM23.8 23.5H39.5C40.65 29 40.65 34.65 39.6 40.15L23.8 40.25C22.65 34.7 22.65 29 23.8 23.5ZM31.65 57.45C28.5 53.4 26.2 48.95 24.8 44.25L38.55 44.15C37.1 48.85 34.8 53.35 31.65 57.45ZM35.65 58.75C38.95 54.25 41.3 49.3 42.7 44.1L56.15 44C52.25 51.85 44.65 57.5 35.65 58.75ZM59 32C59 34.8 58.55 37.5 57.8 40L43.65 40.1C44.65 34.6 44.6 29 43.55 23.5H57.6C58.5 26.15 59 29.05 59 32ZM55.9 19.5H42.6C41.15 14.5 38.85 9.65 35.65 5.25C44.5 6.45 51.95 11.9 55.9 19.5ZM38.45 19.5H24.85C26.3 14.9 28.55 10.55 31.65 6.55C34.75 10.55 37 14.9 38.45 19.5ZM27.55 5.4C24.4 9.75 22.1 14.5 20.7 19.5H8.1C11.95 12.15 19.05 6.8 27.55 5.4ZM19.75 23.5C18.7 29.05 18.7 34.7 19.7 40.25L6.35 40.35C5.45 37.7 5 34.9 5 32C5 29.05 5.5 26.15 6.4 23.5H19.75Z" fill="white"/>
<path d="M35.7222 30.4444H33.6111V28.3333H35.7222V30.4444ZM22 24.1111C22 23.5512 22.2224 23.0142 22.6183 22.6183C23.0142 22.2224 23.5512 22 24.1111 22H38.8889C39.4488 22 39.9858 22.2224 40.3817 22.6183C40.7776 23.0142 41 23.5512 41 24.1111V38.8889C41 39.4488 40.7776 39.9858 40.3817 40.3817C39.9858 40.7776 39.4488 41 38.8889 41H24.1111C22.9394 41 22 40.05 22 38.8889V24.1111ZM29.3889 26.2222H27.2778V36.7778H29.3889V26.2222ZM31.5 36.7778H33.6111V32.5556H35.7222C36.2821 32.5556 36.8191 32.3331 37.215 31.9372C37.6109 31.5413 37.8333 31.0043 37.8333 30.4444V28.3333C37.8333 27.7734 37.6109 27.2365 37.215 26.8406C36.8191 26.4446 36.2821 26.2222 35.7222 26.2222H31.5V36.7778Z" fill="white"/>
</g>
<defs>
<clipPath id="clip0_9_2">
<rect width="64" height="64" rx="32" fill="white"/>
</clipPath>
</defs>
</svg>
