<svg width="44" height="44" viewBox="0 0 44 44" fill="none" xmlns="http://www.w3.org/2000/svg">
<path d="M27.2734 24.34H24.2534C24.0766 24.34 23.907 24.4102 23.782 24.5352C23.6569 24.6603 23.5867 24.8298 23.5867 25.0066C23.5867 25.1835 23.6569 25.353 23.782 25.478C23.907 25.6031 24.0766 25.6733 24.2534 25.6733H25.8534C25.118 26.4418 24.1696 26.9729 23.1301 27.1982C22.0907 27.4236 21.0075 27.333 20.0199 26.9381C19.0323 26.5432 18.1853 25.862 17.5878 24.9821C16.9902 24.1021 16.6695 23.0636 16.6667 22C16.6667 21.8232 16.5965 21.6536 16.4714 21.5286C16.3464 21.4036 16.1769 21.3333 16 21.3333C15.8232 21.3333 15.6537 21.4036 15.5286 21.5286C15.4036 21.6536 15.3334 21.8232 15.3334 22C15.3369 23.3018 15.7215 24.5742 16.4398 25.66C17.158 26.7458 18.1785 27.5976 19.3752 28.1101C20.5719 28.6227 21.8925 28.7737 23.1741 28.5444C24.4556 28.3151 25.6419 27.7157 26.5867 26.82V28C26.5867 28.1768 26.6569 28.3464 26.782 28.4714C26.907 28.5964 27.0766 28.6666 27.2534 28.6666C27.4302 28.6666 27.5998 28.5964 27.7248 28.4714C27.8498 28.3464 27.92 28.1768 27.92 28V25C27.9184 24.8277 27.8501 24.6628 27.7296 24.5398C27.609 24.4167 27.4455 24.3451 27.2734 24.34ZM22 15.3333C20.291 15.3382 18.649 15.9993 17.4134 17.18V16C17.4134 15.8232 17.3431 15.6536 17.2181 15.5286C17.0931 15.4036 16.9235 15.3333 16.7467 15.3333C16.5699 15.3333 16.4003 15.4036 16.2753 15.5286C16.1503 15.6536 16.08 15.8232 16.08 16V19C16.08 19.1768 16.1503 19.3464 16.2753 19.4714C16.4003 19.5964 16.5699 19.6666 16.7467 19.6666H19.7467C19.9235 19.6666 20.0931 19.5964 20.2181 19.4714C20.3431 19.3464 20.4134 19.1768 20.4134 19C20.4134 18.8232 20.3431 18.6536 20.2181 18.5286C20.0931 18.4036 19.9235 18.3333 19.7467 18.3333H18.1467C18.8817 17.5652 19.8294 17.0343 20.8683 16.8087C21.9072 16.5831 22.9898 16.6731 23.9771 17.0672C24.9645 17.4613 25.8115 18.1415 26.4095 19.0204C27.0076 19.8993 27.3293 20.9369 27.3334 22C27.3334 22.1768 27.4036 22.3464 27.5286 22.4714C27.6537 22.5964 27.8232 22.6666 28 22.6666C28.1769 22.6666 28.3464 22.5964 28.4714 22.4714C28.5965 22.3464 28.6667 22.1768 28.6667 22C28.6667 21.1245 28.4943 20.2576 28.1592 19.4488C27.8242 18.6399 27.3331 17.905 26.7141 17.2859C26.095 16.6669 25.3601 16.1758 24.5513 15.8408C23.7424 15.5058 22.8755 15.3333 22 15.3333Z" fill="#F9A500"/>
</svg>
